<svg viewBox="0 0 800 533" xmlns="http://www.w3.org/2000/svg">
  <defs>
    <linearGradient id="sky3" x1="0" y1="0" x2="0" y2="1">
      <stop offset="0%" stop-color="#8fd7f0"/>
      <stop offset="100%" stop-color="#eaf7fb"/>
    </linearGradient>
  </defs>
  <rect width="800" height="533" fill="url(#sky3)"/>
  <circle cx="670" cy="90" r="42" fill="#ffdf86"/>
  <rect y="380" width="800" height="153" fill="#d9c99a"/>
  <rect x="260" y="330" width="150" height="110" fill="#f6f1e4"/>
  <polygon points="335,240 260,330 410,330" fill="#8d8272"/>
  <circle cx="335" cy="260" r="6" fill="#f6f1e4"/>
  <rect x="315" y="380" width="40" height="60" fill="#5b3a26"/>
  <rect x="270" y="360" width="26" height="26" fill="#8fd0e8" stroke="#e3d9c2" stroke-width="4"/>
  <rect x="420" y="345" width="120" height="95" fill="#f6f1e4"/>
  <polygon points="480,265 420,345 540,345" fill="#a19684"/>
  <circle cx="480" cy="285" r="5" fill="#f6f1e4"/>
  <rect x="150" y="360" width="90" height="80" fill="#f0e9d8"/>
  <polygon points="195,290 150,360 240,360" fill="#8d8272"/>
  <path d="M100 440 Q115 360 130 440" stroke="#5f7a4a" stroke-width="8" fill="none"/>
  <ellipse cx="130" cy="380" rx="24" ry="42" fill="#6f9450"/>
  <path d="M600 440 Q615 370 630 440" stroke="#5f7a4a" stroke-width="8" fill="none"/>
  <ellipse cx="630" cy="390" rx="22" ry="38" fill="#6f9450"/>
</svg>
